# xmcd
# Track frame offsets:
# 150
# 18685
# 38290
# 58517
# 77570
# 97785
# 119160
# 138762
# 155205
# 174082
# 191905
# 206302
# 223350
# 241412
# 268087
# 287537
#
# Disc length: 4085 seconds
# Revision: 0
# Processed by: cddbd v1.4PL0 Copyright (c) Steve Scherf et al.
# Submitted via: VisiTrax 2.9.3.171 - For more info visit www.synapsa.com
#
DISCID=e00ff310
DTITLE=I cugini di campagna - 1973-2003 30 anni di: Una storia infinita
DYEAR=2002
DGENRE=Italiano
TTITLE0=Vita della mia vita
TTITLE1=Stigmate
TTITLE2=Canto per te
TTITLE3=La nostra età
TTITLE4=Padre Bianco
TTITLE5=Santa Maria
TTITLE6=Improvvisamente
TTITLE7=Tieni strette le mie mani
TTITLE8=Amor mio
TTITLE9=Ho bisogno di te
TTITLE10=Come sinfonia
TTITLE11=Ho Valentina
TTITLE12=Nell'anima mia
TTITLE13=Sarà
TTITLE14=L'ultima lacrima
TTITLE15=Malafemmena
EXTD=
EXTT0=
EXTT1=
EXTT2=
EXTT3=
EXTT4=
EXTT5=
EXTT6=
EXTT7=
EXTT8=
EXTT9=
EXTT10=
EXTT11=
EXTT12=
EXTT13=
EXTT14=
EXTT15=
PLAYORDER=
